<svg xmlns="http://www.w3.org/2000/svg" viewBox="0 0 144 24"><svg xmlns="http://www.w3.org/2000/svg" height="24" viewBox="0 -960 960 960" width="24" x="0"><path d="M480-120q-117 0-198.5-81.5T200-400q0-94 55.5-168.5T401-669q-20-5-39-14.5T328-708q-33-33-42.5-78.5T281-879q47-5 92.5 4.5T452-832q23 23 33.5 52t13.5 61q13-31 31.5-58.5T572-828q11-11 28-11t28 11q11 11 11 28t-11 28q-22 22-39 48.5T564-667q88 28 142 101.5T760-400q0 117-81.5 198.5T480-120Zm0-80q83 0 141.5-58.5T680-400q0-83-58.5-141.5T480-600q-83 0-141.5 58.5T280-400q0 83 58.5 141.5T480-200Zm0-200Z" /></svg><svg xmlns="http://www.w3.org/2000/svg" height="24" viewBox="0 -960 960 960" width="24" x="24"><path d="M480-480Zm0 360q-18 0-34.5-6.5T416-146L148-415q-35-35-51.5-80T80-589q0-103 67-177t167-74q48 0 90.5 19t75.5 53q32-34 74.5-53t90.5-19q100 0 167.5 74T880-590q0 49-17 94t-51 80L543-146q-13 13-29 19.5t-34 6.5Zm40-520q10 0 19 5t14 13l68 102h166q7-17 10.5-34.5T801-590q-2-69-46-118.5T645-758q-31 0-59.5 12T536-711l-27 29q-5 6-13 9.5t-16 3.5q-8 0-16-3.5t-14-9.5l-27-29q-21-23-49-36t-60-13q-66 0-110 50.5T160-590q0 18 3 35.5t10 34.5h187q10 0 19 5t14 13l35 52 54-162q4-12 14.5-20t23.5-8Zm12 130-54 162q-4 12-15 20t-24 8q-10 0-19-5t-14-13l-68-102H236l237 237q2 2 3.5 2.5t3.5.5q2 0 3.5-.5t3.5-2.5l236-237H600q-10 0-19-5t-15-13l-34-52Z" /></svg><svg xmlns="http://www.w3.org/2000/svg" height="24" viewBox="0 -960 960 960" width="24" x="48"><path d="M420-340h120v-100h100v-120H540v-100H420v100H320v120h100v100Zm60 260q-139-35-229.5-159.5T160-516v-244l320-120 320 120v244q0 152-90.5 276.5T480-80Zm0-84q104-33 172-132t68-220v-189l-240-90-240 90v189q0 121 68 220t172 132Zm0-316Z" /></svg><svg xmlns="http://www.w3.org/2000/svg" height="24" viewBox="0 -960 960 960" width="24" x="72"><path d="M480-80q-73-9-145-39.5T206.5-207Q150-264 115-351T80-560v-40h40q51 0 105 13t101 39q12-86 54.5-176.5T480-880q57 65 99.5 155.5T634-548q47-26 101-39t105-13h40v40q0 122-35 209t-91.5 144q-56.5 57-128 87.5T480-80Zm-2-82q-11-166-98.5-251T162-518q11 171 101.5 255T478-162Zm2-254q15-22 36.5-45.5T558-502q-2-57-22.5-119T480-742q-35 59-55.5 121T402-502q20 17 42 40.5t36 45.5Zm78 236q37-12 77-35t74.5-62.5q34.5-39.5 59-98.5T798-518q-94 14-165 62.5T524-332q12 32 20.5 70t13.5 82Zm-78-236Zm78 236Zm-80 18Zm46-170ZM480-80Z" /></svg><svg xmlns="http://www.w3.org/2000/svg" height="24" viewBox="0 -960 960 960" width="24" x="96"><path d="M80-600v-120q0-33 23.5-56.5T160-800h640q33 0 56.5 23.5T880-720v120h-80v-120H160v120H80Zm80 440q-33 0-56.5-23.5T80-240v-120h80v120h640v-120h80v120q0 33-23.5 56.5T800-160H160Zm240-120q11 0 21-5.5t15-16.5l124-248 44 88q5 11 15 16.5t21 5.5h240v-80H665l-69-138q-5-11-15-15.5t-21-4.5q-11 0-21 4.5T524-658L400-410l-44-88q-5-11-15-16.5t-21-5.5H80v80h215l69 138q5 11 15 16.5t21 5.5Zm80-200Z" /></svg><svg xmlns="http://www.w3.org/2000/svg" height="24" viewBox="0 -960 960 960" width="24" x="120"><path d="M360-160q-19 0-34-11t-22-28l-92-241H40v-80h228l92 244 184-485q7-17 22-28t34-11q19 0 34 11t22 28l92 241h172v80H692l-92-244-184 485q-7 17-22 28t-34 11Z" /></svg></svg>